<svg aria-hidden="true" focusable="false" viewBox="0 0 32 32" version="1.1" xmlns="http://www.w3.org/2000/svg">
  <path d="M 17,12.227539 V 21 h 2 v -7.505859 c 0,0 1.543909,-1.882813 4,-1.882813 2.456091,0 4,1.882813 4,1.882813 V 21 h 2 l 9.77e-4,-8.774414 c 0,0 -2.296139,-2.825847 -5.981446,-2.8271485 C 19.334225,9.397136 17,12.227539 17,12.227539 Z"></path>
  <rect x="8" y="19" width="2" height="2"></rect>
  <rect x="8" y="15" width="2" height="2"></rect>
  <rect x="8" y="11" width="2" height="2"></rect>
  <rect x="22" y="19" width="2" height="2"></rect>
  <rect x="22" y="15" width="2" height="2"></rect>
  <rect x="3" y="24" width="26" height="2"></rect>
  <path d="M 3,8.2275391 V 21 H 5 V 9.4941406 c 0,0 1.5439093,-1.8828125 4,-1.8828125 2.456091,0 4,1.8828125 4,1.8828125 V 21 h 2 l 9.77e-4,-12.7744141 c 0,0 -2.296139,-2.8258469 -5.9814457,-2.8271484 C 5.334225,5.397136 3,8.2275391 3,8.2275391 Z"></path>
</svg>